<svg xmlns="http://www.w3.org/2000/svg" xmlns:xlink="http://www.w3.org/1999/xlink" width="505" zoomAndPan="magnify" viewBox="0 0 378.75 183.750001" height="245" preserveAspectRatio="xMidYMid meet" version="1.2"><defs><clipPath id="d39ffa8028"><path d="M 0.132812 0 L 378.367188 0 L 378.367188 183.5 L 0.132812 183.5 Z M 0.132812 0 "/></clipPath><clipPath id="6d6c6d152d"><path d="M 15.734375 15.402344 L 356.734375 15.402344 L 356.734375 183.28125 L 15.734375 183.28125 Z M 15.734375 15.402344 "/></clipPath><clipPath id="a141268d2e"><path d="M 32.960938 15.402344 L 338.945312 15.402344 C 348.457031 15.402344 356.171875 23.117188 356.171875 32.628906 L 356.171875 166.054688 C 356.171875 175.566406 348.457031 183.28125 338.945312 183.28125 L 32.960938 183.28125 C 23.445312 183.28125 15.734375 175.566406 15.734375 166.054688 L 15.734375 32.628906 C 15.734375 23.117188 23.445312 15.402344 32.960938 15.402344 Z M 32.960938 15.402344 "/></clipPath><clipPath id="987e6326cd"><path d="M 145.265625 69.234375 L 180.902344 69.234375 L 180.902344 101.871094 L 145.265625 101.871094 Z M 145.265625 69.234375 "/></clipPath><clipPath id="0fd31fbdf0"><path d="M 145.359375 77.851562 C 145.742188 75.308594 145.996094 73.527344 146.761719 72.507812 C 147.523438 71.492188 148.921875 70.601562 150.195312 70.089844 C 151.46875 69.582031 152.867188 69.328125 154.269531 69.328125 C 155.792969 69.328125 157.320312 69.453125 158.722656 69.964844 C 159.992188 70.347656 160.882812 71.492188 162.15625 71.871094 C 163.429688 72.382812 164.828125 72.636719 166.101562 72.382812 C 167.375 72.128906 168.390625 70.855469 169.664062 70.601562 C 170.808594 70.21875 172.335938 70.21875 173.609375 70.472656 C 174.882812 70.855469 176.410156 71.492188 177.300781 72.507812 C 178.445312 73.527344 179.082031 75.054688 179.589844 76.453125 C 180.097656 77.851562 180.355469 79.253906 180.480469 80.652344 C 180.734375 82.050781 180.863281 83.453125 180.734375 84.851562 C 180.734375 86.25 180.609375 87.652344 180.355469 89.050781 C 180.097656 90.324219 179.84375 91.722656 179.335938 92.867188 C 178.828125 94.140625 178.0625 95.285156 177.300781 96.304688 C 176.410156 97.449219 175.390625 98.59375 174.246094 99.359375 C 173.226562 100.121094 171.957031 100.632812 170.683594 101.011719 C 169.28125 101.394531 167.757812 101.394531 166.355469 101.523438 C 164.957031 101.648438 163.558594 101.648438 162.15625 101.648438 C 160.757812 101.777344 159.359375 101.902344 158.085938 101.777344 C 156.558594 101.648438 155.03125 101.394531 153.632812 100.757812 C 152.230469 100.25 150.703125 99.105469 149.6875 98.085938 C 148.667969 97.066406 147.90625 95.796875 147.394531 94.523438 C 146.761719 93.25 146.378906 91.722656 146.125 90.324219 C 145.871094 88.925781 145.996094 87.523438 145.996094 86.125 C 145.996094 84.851562 145.996094 83.199219 145.996094 82.179688 C 145.996094 81.542969 146.25 80.90625 146.125 80.652344 C 146.125 80.527344 145.996094 80.527344 145.996094 80.527344 C 145.871094 80.269531 145.613281 79.890625 145.613281 79.636719 C 145.488281 79.378906 145.359375 79 145.359375 78.746094 C 145.234375 78.488281 145.359375 77.851562 145.359375 77.851562 "/></clipPath><clipPath id="3fe4af3977"><path d="M 134.316406 42.121094 L 166.683594 42.121094 L 166.683594 60.523438 L 134.316406 60.523438 Z M 134.316406 42.121094 "/></clipPath><clipPath id="af9a58f3cd"><path d="M 141.542969 45.023438 C 156.304688 48.203125 159.992188 50.113281 160.25 51.640625 C 160.503906 52.785156 159.613281 54.441406 158.085938 55.074219 C 154.777344 56.347656 138.871094 52.785156 135.945312 49.859375 C 134.542969 48.460938 134.289062 45.914062 134.796875 44.640625 C 135.433594 43.371094 138.234375 42.222656 139.507812 42.222656 C 140.523438 42.222656 141.414062 42.859375 142.050781 43.625 C 142.6875 44.515625 143.195312 46.421875 143.070312 47.570312 C 142.941406 48.460938 142.304688 49.351562 141.542969 49.859375 C 140.652344 50.621094 138.742188 51.132812 137.597656 50.75 C 136.324219 50.242188 134.671875 47.824219 134.417969 46.550781 C 134.289062 45.53125 134.671875 44.515625 135.308594 43.878906 C 136.070312 42.988281 137.34375 42.351562 138.996094 42.222656 C 142.5625 41.84375 150.832031 43.878906 155.285156 45.40625 C 158.59375 46.550781 161.648438 48.078125 163.558594 49.730469 C 164.957031 50.875 165.972656 52.148438 166.355469 53.550781 C 166.738281 54.820312 166.738281 56.476562 166.101562 57.621094 C 165.464844 58.765625 163.8125 59.910156 162.539062 60.292969 C 161.265625 60.675781 159.992188 60.421875 158.339844 59.910156 C 155.539062 59.019531 151.339844 55.074219 147.777344 53.675781 C 144.722656 52.402344 139.761719 53.167969 138.234375 51.511719 C 137.214844 50.496094 137.089844 48.203125 137.597656 47.1875 C 138.234375 46.042969 141.542969 45.023438 141.542969 45.023438 "/></clipPath><clipPath id="f921a4c1ec"><path d="M 115.949219 68.609375 L 123.113281 68.609375 L 123.113281 74.796875 L 115.949219 74.796875 Z M 115.949219 68.609375 "/></clipPath><clipPath id="4932f891c4"><path d="M 123.09375 70.855469 C 119.910156 75.945312 116.855469 75.054688 116.21875 73.910156 C 115.585938 72.890625 116.21875 69.710938 117.109375 68.945312 C 118.128906 68.183594 122.199219 69.199219 122.199219 69.199219 "/></clipPath><clipPath id="c413be2de0"><path d="M 116.476562 90 L 138.769531 90 L 138.769531 108.484375 L 116.476562 108.484375 Z M 116.476562 90 "/></clipPath><clipPath id="7339f93351"><path d="M 126.398438 93.757812 C 136.960938 103.683594 136.960938 104.574219 136.582031 105.464844 C 136.070312 106.484375 134.671875 107.757812 133.78125 108.136719 C 133.015625 108.394531 132.507812 108.519531 131.746094 108.136719 C 129.964844 107.503906 127.292969 103.046875 124.875 101.265625 C 122.710938 99.613281 119.785156 99.105469 118.382812 97.703125 C 117.367188 96.6875 116.601562 95.414062 116.601562 94.269531 C 116.476562 93.25 116.984375 92.234375 117.621094 91.46875 C 118.257812 90.832031 119.019531 90.324219 120.292969 90.070312 C 122.964844 89.816406 130.472656 91.976562 133.273438 93.378906 C 134.796875 94.140625 135.6875 94.90625 136.582031 96.050781 C 137.597656 97.578125 138.742188 100.121094 138.617188 101.902344 C 138.617188 103.558594 137.726562 105.722656 136.707031 106.484375 C 135.816406 107.121094 134.542969 107.246094 133.652344 107.121094 C 132.636719 106.867188 130.855469 105.59375 130.980469 105.464844 C 130.980469 105.339844 135.179688 106.992188 135.179688 106.992188 C 135.179688 107.121094 132.125 106.738281 131.234375 105.847656 C 130.34375 104.957031 129.835938 103.046875 130.089844 101.902344 C 130.34375 100.757812 131.492188 99.230469 132.636719 98.722656 C 133.78125 98.214844 135.6875 98.46875 136.707031 99.105469 C 137.726562 99.738281 138.742188 101.394531 138.742188 102.667969 C 138.617188 104.066406 136.960938 106.484375 135.5625 106.992188 C 134.417969 107.375 132.507812 106.992188 131.617188 106.101562 C 130.597656 105.210938 129.964844 102.285156 130.34375 101.011719 C 130.597656 100.121094 131.363281 99.230469 132.253906 98.976562 C 133.652344 98.59375 137.472656 99.613281 138.363281 100.886719 C 138.996094 101.902344 138.742188 103.9375 138.105469 104.957031 C 137.34375 106.101562 134.925781 107.121094 133.652344 107.121094 C 132.636719 106.992188 131.746094 106.355469 130.980469 105.464844 C 129.964844 104.449219 130.089844 101.902344 128.5625 100.757812 C 126.65625 99.105469 121.183594 99.230469 119.273438 98.214844 C 118.128906 97.578125 117.367188 97.066406 116.984375 96.175781 C 116.601562 95.285156 116.601562 93.378906 116.984375 92.359375 C 117.492188 91.46875 118.257812 90.578125 119.273438 90.324219 C 121.054688 89.941406 125 91.085938 127.671875 92.742188 C 130.855469 94.648438 135.5625 99.867188 136.453125 102.539062 C 136.960938 104.066406 136.707031 105.464844 136.070312 106.355469 C 135.6875 107.246094 134.796875 107.882812 133.78125 108.136719 C 132.125 108.394531 129.328125 107.246094 127.164062 105.976562 C 124.492188 104.195312 120.546875 100.121094 119.65625 97.703125 C 119.019531 96.433594 119.148438 95.03125 119.527344 94.015625 C 119.785156 93.25 120.675781 92.488281 121.566406 92.105469 C 122.328125 91.851562 123.472656 91.722656 124.363281 92.105469 C 125.128906 92.359375 126.398438 93.757812 126.398438 93.757812 "/></clipPath><clipPath id="d06e585ff2"><path d="M 138.1875 44.804688 L 161.054688 44.804688 L 161.054688 62 L 138.1875 62 Z M 138.1875 44.804688 "/></clipPath><clipPath id="65019ab464"><path d="M 142.304688 47.949219 C 153.121094 50.496094 153.632812 52.914062 153.121094 53.550781 C 152.613281 54.183594 149.304688 53.804688 149.304688 53.550781 C 149.179688 53.167969 154.648438 50.496094 156.683594 50.75 C 158.085938 50.875 159.613281 51.765625 160.25 52.914062 C 160.882812 54.183594 160.503906 57.238281 159.484375 58.257812 C 158.722656 59.273438 156.8125 59.785156 155.539062 59.65625 C 154.394531 59.402344 152.613281 58.128906 152.230469 56.984375 C 151.722656 55.710938 152.359375 52.660156 153.503906 51.765625 C 154.648438 50.875 157.703125 50.75 158.847656 51.511719 C 160.121094 52.402344 161.011719 55.203125 160.503906 56.730469 C 159.992188 58.511719 155.921875 60.675781 153.886719 61.4375 C 152.484375 61.949219 151.46875 62.074219 149.941406 61.949219 C 147.90625 61.691406 144.214844 60.675781 142.6875 59.402344 C 141.542969 58.382812 141.035156 56.984375 140.78125 55.710938 C 140.398438 54.3125 140.398438 52.660156 140.652344 51.132812 C 140.90625 49.730469 141.289062 48.078125 142.5625 47.058594 C 144.214844 45.53125 148.285156 44.769531 150.960938 44.894531 C 153.632812 45.023438 157.195312 45.914062 158.847656 47.441406 C 160.121094 48.460938 160.882812 50.367188 161.011719 51.765625 C 161.140625 53.039062 160.882812 54.566406 159.867188 55.457031 C 158.46875 56.859375 154.902344 57.75 151.851562 57.75 C 148.160156 57.875 141.160156 56.476562 139.378906 54.566406 C 138.234375 53.421875 137.980469 51.386719 138.488281 50.242188 C 138.996094 49.09375 142.304688 47.949219 142.304688 47.949219 "/></clipPath><clipPath id="c1d8a1da15"><path d="M 225.109375 72 L 231.992188 72 L 231.992188 78.878906 L 225.109375 78.878906 Z M 225.109375 72 "/></clipPath><clipPath id="f114b912d7"><path d="M 228.550781 72 C 229.464844 72 230.339844 72.363281 230.984375 73.007812 C 231.628906 73.652344 231.992188 74.527344 231.992188 75.441406 C 231.992188 76.351562 231.628906 77.226562 230.984375 77.871094 C 230.339844 78.519531 229.464844 78.878906 228.550781 78.878906 C 227.640625 78.878906 226.765625 78.519531 226.117188 77.871094 C 225.472656 77.226562 225.109375 76.351562 225.109375 75.441406 C 225.109375 74.527344 225.472656 73.652344 226.117188 73.007812 C 226.765625 72.363281 227.640625 72 228.550781 72 Z M 228.550781 72 "/></clipPath></defs><g id="48eb38a30c"><g clip-rule="nonzero" clip-path="url(#d39ffa8028)"><path style=" stroke:none;fill-rule:nonzero;fill:#ffffff;fill-opacity:1;" d="M 0.132812 0 L 378.367188 0 L 378.367188 183.5 L 0.132812 183.5 Z M 0.132812 0 "/></g><g clip-rule="nonzero" clip-path="url(#6d6c6d152d)"><g clip-rule="nonzero" clip-path="url(#a141268d2e)"><path style=" stroke:none;fill-rule:nonzero;fill:#6c895b;fill-opacity:1;" d="M 15.734375 15.402344 L 356.078125 15.402344 L 356.078125 183.28125 L 15.734375 183.28125 Z M 15.734375 15.402344 "/></g></g><g style="fill:#ffffff;fill-opacity:1;"><g transform="translate(34.164032, 115.434456)"><path style="stroke:none" d="M 13.203125 -67.75 C 17.191406 -71.75 21.679688 -74.742188 26.671875 -76.734375 C 31.660156 -78.734375 36.796875 -79.734375 42.078125 -79.734375 C 47.367188 -79.734375 52.507812 -78.734375 57.5 -76.734375 C 62.488281 -74.742188 66.976562 -71.75 70.96875 -67.75 L 42.03125 -38.921875 L 70.96875 -9.984375 C 66.976562 -5.984375 62.488281 -2.984375 57.5 -0.984375 C 52.507812 1.003906 47.367188 2 42.078125 2 C 36.796875 2 31.660156 1.003906 26.671875 -0.984375 C 21.679688 -2.984375 17.191406 -5.984375 13.203125 -9.984375 C 9.203125 -13.972656 6.203125 -18.460938 4.203125 -23.453125 C 2.210938 -28.441406 1.21875 -33.578125 1.21875 -38.859375 C 1.21875 -44.148438 2.210938 -49.289062 4.203125 -54.28125 C 6.203125 -59.269531 9.203125 -63.757812 13.203125 -67.75 Z M 13.203125 -67.75 "/></g></g><g style="fill:#ffffff;fill-opacity:1;"><g transform="translate(105.130397, 115.434456)"><path style="stroke:none" d="M 42.46875 -80.28125 C 48.164062 -80.28125 53.507812 -79.207031 58.5 -77.0625 C 63.488281 -74.925781 67.882812 -71.953125 71.6875 -68.140625 C 75.5 -64.335938 78.472656 -59.941406 80.609375 -54.953125 C 82.753906 -49.960938 83.828125 -44.617188 83.828125 -38.921875 C 83.828125 -33.234375 82.753906 -27.890625 80.609375 -22.890625 C 78.472656 -17.898438 75.5 -13.5 71.6875 -9.6875 C 67.882812 -5.882812 63.488281 -2.910156 58.5 -0.765625 C 53.507812 1.367188 48.164062 2.4375 42.46875 2.4375 C 36.78125 2.4375 31.441406 1.367188 26.453125 -0.765625 C 21.460938 -2.910156 17.0625 -5.882812 13.25 -9.6875 C 9.445312 -13.5 6.472656 -17.898438 4.328125 -22.890625 C 2.179688 -27.890625 1.109375 -33.234375 1.109375 -38.921875 C 1.109375 -44.617188 2.179688 -49.960938 4.328125 -54.953125 C 6.472656 -59.941406 9.445312 -64.335938 13.25 -68.140625 C 17.0625 -71.953125 21.460938 -74.925781 26.453125 -77.0625 C 31.441406 -79.207031 36.78125 -80.28125 42.46875 -80.28125 Z M 42.46875 -80.28125 "/></g></g><g style="fill:#ffffff;fill-opacity:1;"><g transform="translate(190.622699, 115.434456)"><path style="stroke:none" d="M 42.140625 0.109375 L 3.328125 0.109375 L 3.328125 -77.625 L 42.140625 -77.625 C 47.460938 -77.625 52.46875 -76.609375 57.15625 -74.578125 C 61.851562 -72.546875 65.992188 -69.753906 69.578125 -66.203125 C 73.171875 -62.648438 75.960938 -58.507812 77.953125 -53.78125 C 79.953125 -49.050781 80.953125 -44.023438 80.953125 -38.703125 C 80.953125 -33.378906 79.953125 -28.367188 77.953125 -23.671875 C 75.960938 -18.984375 73.171875 -14.84375 69.578125 -11.25 C 65.992188 -7.664062 61.851562 -4.875 57.15625 -2.875 C 52.46875 -0.882812 47.460938 0.109375 42.140625 0.109375 Z M 42.140625 0.109375 "/></g></g><g style="fill:#ffffff;fill-opacity:1;"><g transform="translate(273.564636, 115.434456)"><path style="stroke:none" d="M 3.21875 -77.734375 L 67.53125 -77.734375 L 67.53125 -51.5625 L 51.453125 -51.5625 L 51.453125 -48.234375 L 67.53125 -48.234375 L 67.53125 -29.609375 L 51.453125 -29.609375 L 51.453125 -26.28125 L 67.53125 -26.28125 L 67.53125 -0.109375 L 3.21875 -0.109375 Z M 3.21875 -77.734375 "/></g></g><g clip-rule="nonzero" clip-path="url(#987e6326cd)"><g clip-rule="nonzero" clip-path="url(#0fd31fbdf0)"><path style=" stroke:none;fill-rule:nonzero;fill:#6c895b;fill-opacity:1;" d="M 140.269531 64.238281 L 185.894531 64.238281 L 185.894531 106.867188 L 140.269531 106.867188 Z M 140.269531 64.238281 "/></g></g><g clip-rule="nonzero" clip-path="url(#3fe4af3977)"><g clip-rule="nonzero" clip-path="url(#af9a58f3cd)"><path style=" stroke:none;fill-rule:nonzero;fill:#6c895b;fill-opacity:1;" d="M 129.328125 37.132812 L 171.558594 37.132812 L 171.558594 65.511719 L 129.328125 65.511719 Z M 129.328125 37.132812 "/></g></g><g clip-rule="nonzero" clip-path="url(#f921a4c1ec)"><g clip-rule="nonzero" clip-path="url(#4932f891c4)"><path style=" stroke:none;fill-rule:nonzero;fill:#6c895b;fill-opacity:1;" d="M 111.128906 63.855469 L 128.320312 63.855469 L 128.320312 80.527344 L 111.128906 80.527344 Z M 111.128906 63.855469 "/></g></g><g clip-rule="nonzero" clip-path="url(#c413be2de0)"><g clip-rule="nonzero" clip-path="url(#7339f93351)"><path style=" stroke:none;fill-rule:nonzero;fill:#6c895b;fill-opacity:1;" d="M 111.511719 84.980469 L 143.953125 84.980469 L 143.953125 113.230469 L 111.511719 113.230469 Z M 111.511719 84.980469 "/></g></g><g clip-rule="nonzero" clip-path="url(#d06e585ff2)"><g clip-rule="nonzero" clip-path="url(#65019ab464)"><path style=" stroke:none;fill-rule:nonzero;fill:#6c895b;fill-opacity:1;" d="M 133.398438 39.804688 L 166.269531 39.804688 L 166.269531 67.039062 L 133.398438 67.039062 Z M 133.398438 39.804688 "/></g></g><g clip-rule="nonzero" clip-path="url(#c1d8a1da15)"><g clip-rule="nonzero" clip-path="url(#f114b912d7)"><path style=" stroke:none;fill-rule:nonzero;fill:#6c895b;fill-opacity:1;" d="M 225.109375 72 L 231.992188 72 L 231.992188 78.878906 L 225.109375 78.878906 Z M 225.109375 72 "/></g></g><g style="fill:#ffffff;fill-opacity:1;"><g transform="translate(40.788024, 158.782393)"><path style="stroke:none" d="M 15.578125 -21.765625 C 16.035156 -21.765625 16.378906 -21.75 16.609375 -21.71875 C 16.835938 -21.6875 17.09375 -21.59375 17.375 -21.4375 C 17.664062 -21.28125 17.867188 -21.007812 17.984375 -20.625 C 18.109375 -20.25 18.171875 -19.742188 18.171875 -19.109375 C 18.171875 -18.484375 18.109375 -17.984375 17.984375 -17.609375 C 17.867188 -17.234375 17.660156 -16.96875 17.359375 -16.8125 C 17.066406 -16.664062 16.804688 -16.578125 16.578125 -16.546875 C 16.347656 -16.515625 16 -16.5 15.53125 -16.5 L 6.4375 -16.5 L 6.4375 -13.5 L 12.296875 -13.5 C 12.765625 -13.5 13.113281 -13.484375 13.34375 -13.453125 C 13.570312 -13.429688 13.832031 -13.34375 14.125 -13.1875 C 14.644531 -12.882812 14.90625 -12.097656 14.90625 -10.828125 C 14.90625 -9.441406 14.53125 -8.625 13.78125 -8.375 C 13.457031 -8.269531 12.953125 -8.21875 12.265625 -8.21875 L 6.4375 -8.21875 L 6.4375 -2.609375 C 6.4375 -2.140625 6.421875 -1.796875 6.390625 -1.578125 C 6.367188 -1.359375 6.273438 -1.097656 6.109375 -0.796875 C 5.835938 -0.265625 5.066406 0 3.796875 0 C 2.410156 0 1.597656 -0.375 1.359375 -1.125 C 1.242188 -1.445312 1.1875 -1.953125 1.1875 -2.640625 L 1.1875 -19.140625 C 1.1875 -20.148438 1.375 -20.835938 1.75 -21.203125 C 2.125 -21.578125 2.835938 -21.765625 3.890625 -21.765625 Z M 15.578125 -21.765625 "/></g></g><g style="fill:#ffffff;fill-opacity:1;"><g transform="translate(62.691923, 158.782393)"><path style="stroke:none" d="M 11.40625 -22.03125 C 14.332031 -22.03125 16.875 -20.96875 19.03125 -18.84375 C 21.1875 -16.726562 22.265625 -14.101562 22.265625 -10.96875 C 22.265625 -7.832031 21.234375 -5.160156 19.171875 -2.953125 C 17.117188 -0.742188 14.585938 0.359375 11.578125 0.359375 C 8.566406 0.359375 6.003906 -0.726562 3.890625 -2.90625 C 1.785156 -5.082031 0.734375 -7.675781 0.734375 -10.6875 C 0.734375 -12.332031 1.03125 -13.867188 1.625 -15.296875 C 2.21875 -16.734375 3.007812 -17.9375 4 -18.90625 C 4.988281 -19.875 6.125 -20.632812 7.40625 -21.1875 C 8.695312 -21.75 10.03125 -22.03125 11.40625 -22.03125 Z M 6 -10.828125 C 6 -9.066406 6.566406 -7.632812 7.703125 -6.53125 C 8.835938 -5.4375 10.109375 -4.890625 11.515625 -4.890625 C 12.921875 -4.890625 14.1875 -5.425781 15.3125 -6.5 C 16.445312 -7.570312 17.015625 -9.003906 17.015625 -10.796875 C 17.015625 -12.597656 16.441406 -14.039062 15.296875 -15.125 C 14.160156 -16.21875 12.890625 -16.765625 11.484375 -16.765625 C 10.078125 -16.765625 8.8125 -16.21875 7.6875 -15.125 C 6.5625 -14.03125 6 -12.597656 6 -10.828125 Z M 6 -10.828125 "/></g></g><g style="fill:#ffffff;fill-opacity:1;"><g transform="translate(88.691434, 158.782393)"><path style="stroke:none" d="M 17.84375 -3.6875 C 18.132812 -2.96875 18.28125 -2.453125 18.28125 -2.140625 C 18.28125 -1.390625 17.671875 -0.753906 16.453125 -0.234375 C 15.816406 0.0351562 15.304688 0.171875 14.921875 0.171875 C 14.535156 0.171875 14.21875 0.078125 13.96875 -0.109375 C 13.71875 -0.296875 13.535156 -0.488281 13.421875 -0.6875 C 13.222656 -1.0625 12.453125 -2.851562 11.109375 -6.0625 L 10.1875 -6 L 6.4375 -6 L 6.4375 -2.640625 C 6.4375 -2.179688 6.421875 -1.835938 6.390625 -1.609375 C 6.367188 -1.390625 6.273438 -1.128906 6.109375 -0.828125 C 5.835938 -0.296875 5.066406 -0.03125 3.796875 -0.03125 C 2.410156 -0.03125 1.597656 -0.394531 1.359375 -1.125 C 1.242188 -1.457031 1.1875 -1.972656 1.1875 -2.671875 L 1.1875 -19.140625 C 1.1875 -19.597656 1.203125 -19.941406 1.234375 -20.171875 C 1.265625 -20.398438 1.359375 -20.660156 1.515625 -20.953125 C 1.785156 -21.492188 2.554688 -21.765625 3.828125 -21.765625 L 10.234375 -21.765625 C 11.984375 -21.765625 13.675781 -21.128906 15.3125 -19.859375 C 16.101562 -19.242188 16.753906 -18.410156 17.265625 -17.359375 C 17.785156 -16.316406 18.046875 -15.148438 18.046875 -13.859375 C 18.046875 -11.628906 17.304688 -9.789062 15.828125 -8.34375 C 16.253906 -7.289062 16.925781 -5.738281 17.84375 -3.6875 Z M 6.4375 -11.25 L 10.234375 -11.25 C 10.816406 -11.25 11.394531 -11.46875 11.96875 -11.90625 C 12.539062 -12.34375 12.828125 -12.992188 12.828125 -13.859375 C 12.828125 -14.734375 12.539062 -15.390625 11.96875 -15.828125 C 11.394531 -16.273438 10.800781 -16.5 10.1875 -16.5 L 6.4375 -16.5 Z M 6.4375 -11.25 "/></g></g><g style="fill:#ffffff;fill-opacity:1;"><g transform="translate(110.417265, 158.782393)"><path style="stroke:none" d=""/></g></g><g style="fill:#ffffff;fill-opacity:1;"><g transform="translate(120.924689, 158.782393)"><path style="stroke:none" d="M 2.609375 -21.796875 L 19.125 -21.796875 C 19.75 -21.796875 20.207031 -21.71875 20.5 -21.5625 C 20.800781 -21.414062 21 -21.179688 21.09375 -20.859375 C 21.195312 -20.546875 21.25 -20.128906 21.25 -19.609375 C 21.25 -19.097656 21.195312 -18.691406 21.09375 -18.390625 C 21 -18.085938 20.835938 -17.875 20.609375 -17.75 C 20.242188 -17.570312 19.738281 -17.484375 19.09375 -17.484375 L 13.421875 -17.484375 L 13.421875 -2.546875 C 13.421875 -2.097656 13.40625 -1.765625 13.375 -1.546875 C 13.34375 -1.328125 13.253906 -1.070312 13.109375 -0.78125 C 12.960938 -0.5 12.695312 -0.296875 12.3125 -0.171875 C 11.9375 -0.0546875 11.441406 0 10.828125 0 C 10.222656 0 9.734375 -0.0546875 9.359375 -0.171875 C 8.992188 -0.296875 8.738281 -0.5 8.59375 -0.78125 C 8.445312 -1.070312 8.359375 -1.332031 8.328125 -1.5625 C 8.296875 -1.789062 8.28125 -2.128906 8.28125 -2.578125 L 8.28125 -17.484375 L 2.578125 -17.484375 C 1.941406 -17.484375 1.472656 -17.554688 1.171875 -17.703125 C 0.878906 -17.859375 0.679688 -18.09375 0.578125 -18.40625 C 0.484375 -18.71875 0.4375 -19.128906 0.4375 -19.640625 C 0.4375 -20.160156 0.484375 -20.570312 0.578125 -20.875 C 0.679688 -21.1875 0.851562 -21.398438 1.09375 -21.515625 C 1.445312 -21.703125 1.953125 -21.796875 2.609375 -21.796875 Z M 2.609375 -21.796875 "/></g></g><g style="fill:#ffffff;fill-opacity:1;"><g transform="translate(145.618352, 158.782393)"><path style="stroke:none" d="M 14.625 -20.953125 C 14.789062 -21.253906 15.0625 -21.460938 15.4375 -21.578125 C 15.8125 -21.703125 16.285156 -21.765625 16.859375 -21.765625 C 17.429688 -21.765625 17.882812 -21.710938 18.21875 -21.609375 C 18.5625 -21.515625 18.820312 -21.394531 19 -21.25 C 19.175781 -21.113281 19.316406 -20.914062 19.421875 -20.65625 C 19.515625 -20.320312 19.5625 -19.8125 19.5625 -19.125 L 19.5625 -2.640625 C 19.5625 -2.179688 19.546875 -1.835938 19.515625 -1.609375 C 19.484375 -1.390625 19.390625 -1.128906 19.234375 -0.828125 C 18.960938 -0.296875 18.191406 -0.03125 16.921875 -0.03125 C 15.535156 -0.03125 14.722656 -0.394531 14.484375 -1.125 C 14.367188 -1.457031 14.3125 -1.972656 14.3125 -2.671875 L 14.3125 -8.703125 L 6.4375 -8.703125 L 6.4375 -2.640625 C 6.4375 -2.179688 6.421875 -1.835938 6.390625 -1.609375 C 6.367188 -1.390625 6.273438 -1.128906 6.109375 -0.828125 C 5.835938 -0.296875 5.066406 -0.03125 3.796875 -0.03125 C 2.410156 -0.03125 1.597656 -0.394531 1.359375 -1.125 C 1.242188 -1.457031 1.1875 -1.972656 1.1875 -2.671875 L 1.1875 -19.140625 C 1.1875 -19.597656 1.203125 -19.941406 1.234375 -20.171875 C 1.265625 -20.398438 1.359375 -20.660156 1.515625 -20.953125 C 1.785156 -21.492188 2.554688 -21.765625 3.828125 -21.765625 C 5.210938 -21.765625 6.035156 -21.394531 6.296875 -20.65625 C 6.390625 -20.320312 6.4375 -19.8125 6.4375 -19.125 L 6.4375 -13.0625 L 14.3125 -13.0625 L 14.3125 -19.140625 C 14.3125 -19.597656 14.320312 -19.941406 14.34375 -20.171875 C 14.375 -20.398438 14.46875 -20.660156 14.625 -20.953125 Z M 14.625 -20.953125 "/></g></g><g style="fill:#ffffff;fill-opacity:1;"><g transform="translate(169.362315, 158.782393)"><path style="stroke:none" d="M 6.4375 -5.25 L 15.578125 -5.25 C 16.035156 -5.25 16.378906 -5.234375 16.609375 -5.203125 C 16.835938 -5.179688 17.097656 -5.085938 17.390625 -4.921875 C 17.929688 -4.648438 18.203125 -3.878906 18.203125 -2.609375 C 18.203125 -1.222656 17.832031 -0.410156 17.09375 -0.171875 C 16.757812 -0.0546875 16.25 0 15.5625 0 L 3.796875 0 C 2.410156 0 1.597656 -0.375 1.359375 -1.125 C 1.242188 -1.445312 1.1875 -1.953125 1.1875 -2.640625 L 1.1875 -19.140625 C 1.1875 -20.148438 1.375 -20.835938 1.75 -21.203125 C 2.125 -21.578125 2.835938 -21.765625 3.890625 -21.765625 L 15.578125 -21.765625 C 16.035156 -21.765625 16.378906 -21.75 16.609375 -21.71875 C 16.835938 -21.6875 17.097656 -21.59375 17.390625 -21.4375 C 17.929688 -21.15625 18.203125 -20.382812 18.203125 -19.125 C 18.203125 -17.738281 17.832031 -16.925781 17.09375 -16.6875 C 16.757812 -16.5625 16.25 -16.5 15.5625 -16.5 L 6.4375 -16.5 L 6.4375 -13.5 L 12.3125 -13.5 C 12.769531 -13.5 13.113281 -13.484375 13.34375 -13.453125 C 13.570312 -13.429688 13.832031 -13.34375 14.125 -13.1875 C 14.664062 -12.90625 14.9375 -12.128906 14.9375 -10.859375 C 14.9375 -9.472656 14.554688 -8.664062 13.796875 -8.4375 C 13.460938 -8.3125 12.953125 -8.25 12.265625 -8.25 L 6.4375 -8.25 Z M 6.4375 -5.25 "/></g></g><g style="fill:#ffffff;fill-opacity:1;"><g transform="translate(191.295894, 158.782393)"><path style="stroke:none" d=""/></g></g><g style="fill:#ffffff;fill-opacity:1;"><g transform="translate(201.803318, 158.782393)"><path style="stroke:none" d="M 17.234375 -17.359375 C 17.753906 -16.316406 18.015625 -15.148438 18.015625 -13.859375 C 18.015625 -12.578125 17.753906 -11.414062 17.234375 -10.375 C 16.722656 -9.332031 16.066406 -8.503906 15.265625 -7.890625 C 13.617188 -6.628906 11.914062 -6 10.15625 -6 L 6.4375 -6 L 6.4375 -2.640625 C 6.4375 -2.179688 6.421875 -1.835938 6.390625 -1.609375 C 6.367188 -1.390625 6.273438 -1.128906 6.109375 -0.828125 C 5.835938 -0.296875 5.066406 -0.03125 3.796875 -0.03125 C 2.410156 -0.03125 1.597656 -0.394531 1.359375 -1.125 C 1.242188 -1.457031 1.1875 -1.972656 1.1875 -2.671875 L 1.1875 -19.140625 C 1.1875 -19.597656 1.203125 -19.941406 1.234375 -20.171875 C 1.265625 -20.398438 1.359375 -20.660156 1.515625 -20.953125 C 1.785156 -21.492188 2.554688 -21.765625 3.828125 -21.765625 L 10.1875 -21.765625 C 11.925781 -21.765625 13.617188 -21.128906 15.265625 -19.859375 C 16.066406 -19.242188 16.722656 -18.410156 17.234375 -17.359375 Z M 10.1875 -11.25 C 10.78125 -11.25 11.363281 -11.46875 11.9375 -11.90625 C 12.507812 -12.34375 12.796875 -12.992188 12.796875 -13.859375 C 12.796875 -14.734375 12.507812 -15.390625 11.9375 -15.828125 C 11.363281 -16.273438 10.769531 -16.5 10.15625 -16.5 L 6.4375 -16.5 L 6.4375 -11.25 Z M 10.1875 -11.25 "/></g></g><g style="fill:#ffffff;fill-opacity:1;"><g transform="translate(223.558829, 158.782393)"><path style="stroke:none" d="M 6.4375 -4.390625 L 14.515625 -4.390625 C 15.171875 -4.390625 15.644531 -4.316406 15.9375 -4.171875 C 16.238281 -4.023438 16.4375 -3.789062 16.53125 -3.46875 C 16.632812 -3.15625 16.6875 -2.734375 16.6875 -2.203125 C 16.6875 -1.679688 16.632812 -1.257812 16.53125 -0.9375 C 16.4375 -0.625 16.269531 -0.410156 16.03125 -0.296875 C 15.65625 -0.0976562 15.140625 0 14.484375 0 L 3.796875 0 C 2.410156 0 1.597656 -0.375 1.359375 -1.125 C 1.242188 -1.445312 1.1875 -1.953125 1.1875 -2.640625 L 1.1875 -19.140625 C 1.1875 -19.597656 1.203125 -19.941406 1.234375 -20.171875 C 1.265625 -20.398438 1.359375 -20.660156 1.515625 -20.953125 C 1.785156 -21.492188 2.554688 -21.765625 3.828125 -21.765625 C 5.210938 -21.765625 6.035156 -21.394531 6.296875 -20.65625 C 6.390625 -20.320312 6.4375 -19.8125 6.4375 -19.125 Z M 6.4375 -4.390625 "/></g></g><g style="fill:#ffffff;fill-opacity:1;"><g transform="translate(243.978822, 158.782393)"><path style="stroke:none" d="M 13.75 -20.21875 L 21.765625 -3.65625 C 22.097656 -2.976562 22.265625 -2.472656 22.265625 -2.140625 C 22.265625 -1.421875 21.691406 -0.773438 20.546875 -0.203125 C 19.867188 0.128906 19.335938 0.296875 18.953125 0.296875 C 18.566406 0.296875 18.25 0.207031 18 0.03125 C 17.757812 -0.144531 17.582031 -0.332031 17.46875 -0.53125 C 17.363281 -0.726562 17.210938 -1.023438 17.015625 -1.421875 L 15.46875 -4.625 L 7.25 -4.625 L 5.703125 -1.421875 C 5.503906 -1.023438 5.347656 -0.738281 5.234375 -0.5625 C 5.128906 -0.382812 4.953125 -0.203125 4.703125 -0.015625 C 4.453125 0.171875 4.132812 0.265625 3.75 0.265625 C 3.363281 0.265625 2.835938 0.0976562 2.171875 -0.234375 C 1.015625 -0.785156 0.4375 -1.421875 0.4375 -2.140625 C 0.4375 -2.472656 0.609375 -2.976562 0.953125 -3.65625 L 8.96875 -20.25 C 9.1875 -20.695312 9.515625 -21.0625 9.953125 -21.34375 C 10.398438 -21.625 10.875 -21.765625 11.375 -21.765625 C 12.4375 -21.765625 13.226562 -21.25 13.75 -20.21875 Z M 11.34375 -13.09375 L 9.375 -9.03125 L 13.328125 -9.03125 Z M 11.34375 -13.09375 "/></g></g><g style="fill:#ffffff;fill-opacity:1;"><g transform="translate(269.681523, 158.782393)"><path style="stroke:none" d="M 15.25 -20.84375 C 15.4375 -21.195312 15.71875 -21.429688 16.09375 -21.546875 C 16.46875 -21.671875 16.9375 -21.734375 17.5 -21.734375 C 18.0625 -21.734375 18.515625 -21.679688 18.859375 -21.578125 C 19.210938 -21.484375 19.472656 -21.363281 19.640625 -21.21875 C 19.804688 -21.082031 19.929688 -20.878906 20.015625 -20.609375 C 20.128906 -20.285156 20.1875 -19.78125 20.1875 -19.09375 L 20.1875 -2.609375 C 20.1875 -2.140625 20.171875 -1.796875 20.140625 -1.578125 C 20.109375 -1.359375 20.015625 -1.097656 19.859375 -0.796875 C 19.578125 -0.265625 18.804688 0 17.546875 0 C 16.773438 0 16.238281 -0.0546875 15.9375 -0.171875 C 15.644531 -0.296875 15.398438 -0.484375 15.203125 -0.734375 C 10.742188 -6.671875 7.8125 -10.550781 6.40625 -12.375 L 6.40625 -2.609375 C 6.40625 -2.140625 6.390625 -1.796875 6.359375 -1.578125 C 6.335938 -1.359375 6.242188 -1.097656 6.078125 -0.796875 C 5.804688 -0.265625 5.035156 0 3.765625 0 C 2.535156 0 1.785156 -0.265625 1.515625 -0.796875 C 1.359375 -1.097656 1.265625 -1.363281 1.234375 -1.59375 C 1.203125 -1.832031 1.1875 -2.179688 1.1875 -2.640625 L 1.1875 -19.203125 C 1.1875 -19.953125 1.28125 -20.5 1.46875 -20.84375 C 1.65625 -21.195312 1.9375 -21.429688 2.3125 -21.546875 C 2.6875 -21.671875 3.171875 -21.734375 3.765625 -21.734375 C 4.359375 -21.734375 4.828125 -21.675781 5.171875 -21.5625 C 5.523438 -21.457031 5.769531 -21.335938 5.90625 -21.203125 C 5.988281 -21.140625 6.21875 -20.878906 6.59375 -20.421875 C 10.769531 -14.742188 13.5625 -10.992188 14.96875 -9.171875 L 14.96875 -19.203125 C 14.96875 -19.953125 15.0625 -20.5 15.25 -20.84375 Z M 15.25 -20.84375 "/></g></g><g style="fill:#ffffff;fill-opacity:1;"><g transform="translate(294.048729, 158.782393)"><path style="stroke:none" d="M 6.4375 -5.25 L 15.578125 -5.25 C 16.035156 -5.25 16.378906 -5.234375 16.609375 -5.203125 C 16.835938 -5.179688 17.097656 -5.085938 17.390625 -4.921875 C 17.929688 -4.648438 18.203125 -3.878906 18.203125 -2.609375 C 18.203125 -1.222656 17.832031 -0.410156 17.09375 -0.171875 C 16.757812 -0.0546875 16.25 0 15.5625 0 L 3.796875 0 C 2.410156 0 1.597656 -0.375 1.359375 -1.125 C 1.242188 -1.445312 1.1875 -1.953125 1.1875 -2.640625 L 1.1875 -19.140625 C 1.1875 -20.148438 1.375 -20.835938 1.75 -21.203125 C 2.125 -21.578125 2.835938 -21.765625 3.890625 -21.765625 L 15.578125 -21.765625 C 16.035156 -21.765625 16.378906 -21.75 16.609375 -21.71875 C 16.835938 -21.6875 17.097656 -21.59375 17.390625 -21.4375 C 17.929688 -21.15625 18.203125 -20.382812 18.203125 -19.125 C 18.203125 -17.738281 17.832031 -16.925781 17.09375 -16.6875 C 16.757812 -16.5625 16.25 -16.5 15.5625 -16.5 L 6.4375 -16.5 L 6.4375 -13.5 L 12.3125 -13.5 C 12.769531 -13.5 13.113281 -13.484375 13.34375 -13.453125 C 13.570312 -13.429688 13.832031 -13.34375 14.125 -13.1875 C 14.664062 -12.90625 14.9375 -12.128906 14.9375 -10.859375 C 14.9375 -9.472656 14.554688 -8.664062 13.796875 -8.4375 C 13.460938 -8.3125 12.953125 -8.25 12.265625 -8.25 L 6.4375 -8.25 Z M 6.4375 -5.25 "/></g></g><g style="fill:#ffffff;fill-opacity:1;"><g transform="translate(315.982319, 158.782393)"><path style="stroke:none" d="M 2.609375 -21.796875 L 19.125 -21.796875 C 19.75 -21.796875 20.207031 -21.71875 20.5 -21.5625 C 20.800781 -21.414062 21 -21.179688 21.09375 -20.859375 C 21.195312 -20.546875 21.25 -20.128906 21.25 -19.609375 C 21.25 -19.097656 21.195312 -18.691406 21.09375 -18.390625 C 21 -18.085938 20.835938 -17.875 20.609375 -17.75 C 20.242188 -17.570312 19.738281 -17.484375 19.09375 -17.484375 L 13.421875 -17.484375 L 13.421875 -2.546875 C 13.421875 -2.097656 13.40625 -1.765625 13.375 -1.546875 C 13.34375 -1.328125 13.253906 -1.070312 13.109375 -0.78125 C 12.960938 -0.5 12.695312 -0.296875 12.3125 -0.171875 C 11.9375 -0.0546875 11.441406 0 10.828125 0 C 10.222656 0 9.734375 -0.0546875 9.359375 -0.171875 C 8.992188 -0.296875 8.738281 -0.5 8.59375 -0.78125 C 8.445312 -1.070312 8.359375 -1.332031 8.328125 -1.5625 C 8.296875 -1.789062 8.28125 -2.128906 8.28125 -2.578125 L 8.28125 -17.484375 L 2.578125 -17.484375 C 1.941406 -17.484375 1.472656 -17.554688 1.171875 -17.703125 C 0.878906 -17.859375 0.679688 -18.09375 0.578125 -18.40625 C 0.484375 -18.71875 0.4375 -19.128906 0.4375 -19.640625 C 0.4375 -20.160156 0.484375 -20.570312 0.578125 -20.875 C 0.679688 -21.1875 0.851562 -21.398438 1.09375 -21.515625 C 1.445312 -21.703125 1.953125 -21.796875 2.609375 -21.796875 Z M 2.609375 -21.796875 "/></g></g></g></svg>