<?xml version="1.0" encoding="UTF-8"?>
<svg width="150" height="150" version="1.1" xmlns="http://www.w3.org/2000/svg">
 <path d="m41.095 55.089c1.7345-2.9481 3.8376-5.6483 6.2519-8.0373l-20.497-22.473c-5.1528 4.924-9.5494 10.636-13.012 16.932z" fill="#56c02b"/>
 <path d="m91.335 39.289c3.1006 1.4232 5.9914 3.234 8.5964 5.3815l20.548-22.434c-5.4133-4.6699-11.551-8.5202-18.216-11.367z" fill="#dda83a"/>
 <path d="m138.4 45.989-27.238 13.578c1.3025 3.037 2.2238 6.2583 2.7257 9.6257l30.3-2.8591c-0.89586-7.1732-2.8782-14.016-5.7881-20.344" fill="#c5192d"/>
 <path d="m109.21 55.689 27.231-13.578c-3.3738-6.2647-7.6751-11.964-12.726-16.894l-20.548 22.428c2.3381 2.408 4.3776 5.1082 6.0423 8.0436" fill="#4c9f38"/>
 <path d="m35.685 74.989c0-0.6099 0.0191-1.2262 0.0508-1.8362l-30.307-2.713c-0.0953 1.5058-0.15249 3.018-0.15249 4.5492 0 5.8135 0.71796 11.462 2.0586 16.856l29.271-8.3995c-0.59724-2.7257-0.92127-5.553-0.92127-8.4566" fill="#3f7e44"/>
 <path d="m105.4 99.889c-2.1539 2.624-4.6381 4.9558-7.3892 6.9508l15.998 25.91c5.9406-4.0219 11.227-8.9395 15.668-14.55z" fill="#fcc30b"/>
 <path d="m114.32 74.989c0 2.8718-0.30497 5.6674-0.90221 8.3613l29.271 8.4058c1.3343-5.3688 2.0395-10.985 2.0395-16.767 0-1.4359-0.0445-2.8591-0.13342-4.2823l-30.3 2.8654c0.0127 0.4766 0.0254 0.9404 0.0254 1.4169" fill="#ff3a21"/>
 <path d="m45.095 100.49-24.22 18.413c4.5047 5.5467 9.8354 10.382 15.814 14.327l15.998-25.878c-2.8146-1.9506-5.3688-4.2633-7.5925-6.8619" fill="#fd9d24"/>
 <path d="m36.175 68.789c0.54006-3.4246 1.5376-6.6967 2.9036-9.7591l-27.225-13.565c-3.0116 6.398-5.0765 13.33-6.0105 20.605z" fill="#0a97d9"/>
 <path d="m110.29 135.09-15.979-25.872c-2.9036 1.6392-6.0296 2.9226-9.3207 3.7867l5.6356 29.932c7.0144-1.6138 13.635-4.2887 19.664-7.8467" fill="#a21942"/>
 <path d="m112.25 87.589c-1.061 3.1133-2.4906 6.0486-4.2506 8.7616l24.296 18.324c3.9456-5.6674 7.0652-11.951 9.1936-18.68z" fill="#26bde2"/>
 <path d="m80.665 113.89c-1.8489 0.2669-3.7423 0.413-5.6674 0.413-1.5503 0-3.0751-0.095-4.5809-0.2732l-5.6356 29.932c3.3356 0.4893 6.7475 0.7498 10.217 0.7498 3.8439 0 7.6243-0.3177 11.303-0.915z" fill="#fd6925"/>
 <path d="m77.515 35.789c3.3801 0.216 6.6395 0.8577 9.7273 1.8807l10.935-28.407c-6.5061-2.3-13.444-3.6597-20.662-3.9138z" fill="#e5243b"/>
 <path d="m66.095 113.29c-3.4055-0.7942-6.6459-2.0331-9.6511-3.647l-16.011 25.891c6.163 3.5263 12.898 6.1312 20.033 7.6561z" fill="#dd1367"/>
 <path d="m63.185 37.489c3.1577-0.9975 6.487-1.6075 9.9307-1.7663v-30.434c-7.313 0.1906-14.346 1.5249-20.935 3.8122z" fill="#19486a"/>
 <path d="m42.435 96.989c-1.9315-2.8528-3.5072-5.9724-4.6381-9.2953l-29.252 8.3931c2.2174 6.9762 5.5022 13.476 9.6638 19.315z" fill="#bf8b2e"/>
 <path d="m50.645 44.189c2.5732-2.0331 5.4006-3.7486 8.4312-5.1019l-10.998-28.375c-6.5506 2.7511-12.586 6.4743-17.943 10.992z" fill="#00689d"/>
</svg>
